<svg xmlns="http://www.w3.org/2000/svg" xmlns:xlink="http://www.w3.org/1999/xlink">

  <symbol id="arrow" viewBox="0 0 26 15" xmlns="http://www.w3.org/2000/svg">
    <path
      d="M1.53033 0.46967C1.23744 0.176777 0.762563 0.176777 0.46967 0.46967C0.176777 0.762563 0.176777 1.23744 0.46967 1.53033L1.53033 0.46967ZM13 13L12.4697 13.5303L13 14.0607L13.5303 13.5303L13 13ZM0.46967 1.53033L12.4697 13.5303L13.5303 12.4697L1.53033 0.46967L0.46967 1.53033ZM13.5303 13.5303L25.5303 1.53033L24.4697 0.46967L12.4697 12.4697L13.5303 13.5303Z" />
  </symbol>
  <!-- fill="#A7886B" -->

  <symbol id="telegram" viewBox="0 0 28 28" xmlns="http://www.w3.org/2000/svg">
    <path
      d="M27.3337 13.9998C27.3337 21.3636 21.3641 27.3332 14.0003 27.3332C6.63653 27.3332 0.666992 21.3636 0.666992 13.9998C0.666992 6.63604 6.63653 0.666504 14.0003 0.666504C21.3641 0.666504 27.3337 6.63604 27.3337 13.9998ZM14.4782 10.5098C13.1813 11.0492 10.5894 12.1657 6.70246 13.8592C6.07127 14.1101 5.74065 14.3557 5.71054 14.5957C5.65967 15.0016 6.16781 15.1613 6.85977 15.3789C6.95389 15.4085 7.05142 15.4392 7.15139 15.4717C7.83216 15.6929 8.74794 15.9518 9.224 15.9621C9.65584 15.9714 10.1378 15.7934 10.67 15.428C14.3017 12.9765 16.1763 11.7374 16.2941 11.7108C16.3771 11.6918 16.4922 11.6682 16.5701 11.7374C16.6481 11.8068 16.6403 11.938 16.6322 11.9732C16.5818 12.1878 14.5871 14.0422 13.555 15.0018C13.2471 15.288 12.9471 15.5802 12.6447 15.8717C12.0123 16.4813 11.5381 16.9385 12.671 17.6852C13.8195 18.4421 14.9767 19.1974 16.0969 19.996C16.6493 20.3898 17.1457 20.7437 17.7587 20.6873C18.1151 20.6545 18.4831 20.3194 18.6699 19.3202C19.1117 16.9589 19.9799 11.8426 20.1806 9.73428C20.1982 9.54957 20.1761 9.31317 20.1583 9.2094C20.1406 9.10562 20.1034 8.95776 19.9686 8.8483C19.8087 8.71868 19.5622 8.69134 19.4519 8.69329C18.9503 8.70213 18.181 8.96966 14.4782 10.5098Z" />
  </symbol>
  <!-- fill="#D7BB98" -->

  <symbol id="vk" viewBox="0 0 24 24" xmlns="http://www.w3.org/2000/svg">
    <path
      d="M1.68 1.68C3.17891e-07 3.376 0 6.088 0 11.52V12.48C0 17.904 3.17891e-07 20.616 1.68 22.32C3.376 24 6.088 24 11.52 24H12.48C17.904 24 20.616 24 22.32 22.32C24 20.624 24 17.912 24 12.48V11.52C24 6.096 24 3.384 22.32 1.68C20.624 3.17891e-07 17.912 0 12.48 0H11.52C6.096 0 3.384 3.17891e-07 1.68 1.68ZM4.04817 7.30423H6.80017C6.88817 11.8803 8.90417 13.8163 10.5041 14.2163V7.30423H13.0881V11.2483C14.6641 11.0803 16.3281 9.28023 16.8881 7.29623H19.4641C19.2541 8.32324 18.8345 9.29591 18.2316 10.1535C17.6288 11.0109 16.8555 11.7349 15.9601 12.2803C16.9593 12.7775 17.8417 13.4809 18.5491 14.3443C19.2565 15.2075 19.7729 16.2108 20.0641 17.2883H17.2241C16.6161 15.3923 15.0961 13.9203 13.0881 13.7203V17.2883H12.7761H12.7681C7.29617 17.2883 4.17617 13.5443 4.04817 7.30423Z" />
  </symbol>
  <!-- fill="#D7BB98" -->

  <symbol id="instagram" viewBox="0 0 28 28" xmlns="http://www.w3.org/2000/svg">
    <path
      d="M15.3708 0.66748C16.8713 0.66996 17.6317 0.677907 18.2888 0.697467L18.5476 0.705921C18.8465 0.716547 19.1415 0.72988 19.4971 0.746547C20.9159 0.812107 21.8837 1.03655 22.7337 1.36655C23.6125 1.70544 24.3548 2.16321 25.0959 2.90433C25.8359 3.64544 26.2937 4.38988 26.6337 5.26655C26.9625 6.11544 27.1871 7.08433 27.2537 8.50321C27.2696 8.85877 27.2824 9.15371 27.2929 9.45269L27.3013 9.71148C27.3208 10.3685 27.3297 11.129 27.3325 12.6296L27.3336 13.6237C27.3337 13.7452 27.3337 13.8705 27.3337 13.9998L27.3336 14.376L27.3328 15.3702C27.3303 16.8708 27.3224 17.6313 27.3028 18.2882L27.2943 18.547C27.2837 18.8461 27.2704 19.141 27.2537 19.4965C27.1881 20.9154 26.9625 21.8832 26.6337 22.7332C26.2948 23.6121 25.8359 24.3544 25.0959 25.0954C24.3548 25.8354 23.6092 26.2932 22.7337 26.6332C21.8837 26.9621 20.9159 27.1865 19.4971 27.2532C19.1415 27.269 18.8465 27.282 18.5476 27.2924L18.2888 27.3008C17.6317 27.3204 16.8713 27.3292 15.3708 27.3321L14.3765 27.3332C14.2551 27.3332 14.1297 27.3332 14.0004 27.3332H13.6243L12.63 27.3322C11.1295 27.3298 10.369 27.3218 9.71196 27.3022L9.45318 27.2938C9.15418 27.2832 8.85925 27.2698 8.5037 27.2532C7.08481 27.1877 6.11814 26.9621 5.26704 26.6332C4.38925 26.2944 3.64592 25.8354 2.90481 25.0954C2.1637 24.3544 1.70704 23.6088 1.36704 22.7332C1.03704 21.8832 0.813702 20.9154 0.747036 19.4965C0.731196 19.141 0.718275 18.8461 0.707809 18.547L0.699422 18.2882C0.679916 17.6313 0.671022 16.8708 0.668142 15.3702L0.667969 12.6296C0.670449 11.129 0.678382 10.3685 0.697942 9.71148L0.706409 9.45269C0.717035 9.15371 0.730369 8.85877 0.747036 8.50321C0.812582 7.08321 1.03704 6.11655 1.36704 5.26655C1.70592 4.38877 2.1637 3.64544 2.90481 2.90433C3.64592 2.16321 4.39037 1.70655 5.26704 1.36655C6.11704 1.03655 7.0837 0.813214 8.5037 0.746547C8.85925 0.73072 9.15418 0.717801 9.45318 0.707334L9.71196 0.698947C10.369 0.679427 11.1295 0.670534 12.63 0.667654L15.3708 0.66748ZM14.0004 7.33321C10.3165 7.33321 7.3337 10.3193 7.3337 13.9998C7.3337 17.6837 10.3197 20.6665 14.0004 20.6665C17.6843 20.6665 20.6671 17.6805 20.6671 13.9998C20.6671 10.316 17.6809 7.33321 14.0004 7.33321ZM14.0004 9.99988C16.2096 9.99988 18.0004 11.7901 18.0004 13.9998C18.0004 16.209 16.2101 17.9998 14.0004 17.9998C11.7912 17.9998 10.0004 16.2097 10.0004 13.9998C10.0004 11.7906 11.7905 9.99988 14.0004 9.99988ZM21.0004 5.33321C20.0813 5.33321 19.3337 6.07976 19.3337 6.99875C19.3337 7.91775 20.0803 8.66544 21.0004 8.66544C21.9193 8.66544 22.6671 7.91891 22.6671 6.99875C22.6671 6.07976 21.9181 5.33207 21.0004 5.33321Z" />
  </symbol>
  <!-- fill="#D7BB98" -->

  <symbol id="exit" xmlns="http://www.w3.org/2000/svg" xmlns:xlink="http://www.w3.org/1999/xlink"  viewBox="0 0 489.8 489.8">
  <g><g><path d="M438.2,0H51.6C23.1,0,0,23.2,0,51.6v386.6c0,28.5,23.2,51.6,51.6,51.6h386.6c28.5,0,51.6-23.2,51.6-51.6V51.6 C489.8,23.2,466.6,0,438.2,0z M465.3,438.2c0,14.9-12.2,27.1-27.1,27.1H51.6c-14.9,0-27.1-12.2-27.1-27.1V51.6 c0-14.9,12.2-27.1,27.1-27.1h386.6c14.9,0,27.1,12.2,27.1,27.1V438.2z"></path><path d="M319,170.8c-4.8-4.8-12.5-4.8-17.3,0l-56.8,56.8l-56.8-56.8c-4.8-4.8-12.5-4.8-17.3,0s-4.8,12.5,0,17.3l56.8,56.8 l-56.8,56.8c-4.8,4.8-4.8,12.5,0,17.3c2.4,2.4,5.5,3.6,8.7,3.6s6.3-1.2,8.7-3.6l56.8-56.8l56.8,56.8c2.4,2.4,5.5,3.6,8.7,3.6 s6.3-1.2,8.7-3.6c4.8-4.8,4.8-12.5,0-17.3l-57-56.8l56.8-56.8C323.8,183.3,323.8,175.6,319,170.8z"></path></g></g>
  </symbol> 

</svg>