<svg width="95" height="99" viewBox="0 0 95 99" fill="none" xmlns="http://www.w3.org/2000/svg">
<g filter="url(#filter0_d_231_338)">
<path d="M44.7637 1.75C68.9261 1.75 88.5137 21.3375 88.5137 45.5L90.0137 45.5C90.0137 20.5091 69.7546 0.249998 44.7637 0.249996L44.7637 1.75ZM88.5137 45.5C88.5137 69.6625 68.9261 89.25 44.7637 89.25L44.7637 90.75C69.7546 90.75 90.0137 70.4909 90.0137 45.5L88.5137 45.5ZM5.67027 25.8375C12.8714 11.5486 27.6739 1.74999 44.7637 1.75L44.7637 0.249996C27.0858 0.249995 11.7769 10.3873 4.33076 25.1625L5.67027 25.8375ZM44.7637 89.25C27.6739 89.25 12.8714 79.4514 5.67027 65.1625L4.33076 65.8375C11.7769 80.6127 27.0858 90.75 44.7637 90.75L44.7637 89.25Z" fill="#A7886B"/>
</g>
<defs>
<filter id="filter0_d_231_338" x="0.331055" y="0.25" width="93.6826" height="98.5" filterUnits="userSpaceOnUse" color-interpolation-filters="sRGB">
<feFlood flood-opacity="0" result="BackgroundImageFix"/>
<feColorMatrix in="SourceAlpha" type="matrix" values="0 0 0 0 0 0 0 0 0 0 0 0 0 0 0 0 0 0 127 0" result="hardAlpha"/>
<feOffset dy="4"/>
<feGaussianBlur stdDeviation="2"/>
<feComposite in2="hardAlpha" operator="out"/>
<feColorMatrix type="matrix" values="0 0 0 0 0.679167 0 0 0 0 0.669734 0 0 0 0 0.622569 0 0 0 1 0"/>
<feBlend mode="normal" in2="BackgroundImageFix" result="effect1_dropShadow_231_338"/>
<feBlend mode="normal" in="SourceGraphic" in2="effect1_dropShadow_231_338" result="shape"/>
</filter>
</defs>
</svg>
