<svg width="94" height="99" viewBox="0 0 94 99" fill="none" xmlns="http://www.w3.org/2000/svg">
<g filter="url(#filter0_d_192_1214)">
<path d="M49.5 89.25C25.3375 89.25 5.75 69.6625 5.75 45.5H4.25C4.25 70.4909 24.5091 90.75 49.5 90.75V89.25ZM5.75 45.5C5.75 21.3375 25.3375 1.75 49.5 1.75V0.25C24.5091 0.25 4.25 20.5091 4.25 45.5H5.75ZM88.5934 65.1625C81.3923 79.4514 66.5897 89.25 49.5 89.25V90.75C67.1779 90.75 82.4867 80.6127 89.9329 65.8375L88.5934 65.1625ZM49.5 1.75C66.5897 1.75 81.3923 11.5486 88.5934 25.8375L89.9329 25.1625C82.4867 10.3873 67.1779 0.25 49.5 0.25V1.75Z" fill="#A7886B"/>
</g>
<defs>
<filter id="filter0_d_192_1214" x="0.25" y="0.25" width="93.6826" height="98.5" filterUnits="userSpaceOnUse" color-interpolation-filters="sRGB">
<feFlood flood-opacity="0" result="BackgroundImageFix"/>
<feColorMatrix in="SourceAlpha" type="matrix" values="0 0 0 0 0 0 0 0 0 0 0 0 0 0 0 0 0 0 127 0" result="hardAlpha"/>
<feOffset dy="4"/>
<feGaussianBlur stdDeviation="2"/>
<feComposite in2="hardAlpha" operator="out"/>
<feColorMatrix type="matrix" values="0 0 0 0 0.679167 0 0 0 0 0.669734 0 0 0 0 0.622569 0 0 0 1 0"/>
<feBlend mode="normal" in2="BackgroundImageFix" result="effect1_dropShadow_192_1214"/>
<feBlend mode="normal" in="SourceGraphic" in2="effect1_dropShadow_192_1214" result="shape"/>
</filter>
</defs>
</svg>
