<svg width="47" height="47" viewBox="0 0 47 47" fill="none" xmlns="http://www.w3.org/2000/svg">
<circle cx="23.5" cy="23.5" r="22.5" stroke="#A7886B" stroke-width="1.5"/>
<path d="M24.6765 29.9705H22.3866L21.4202 8H25.6429L24.6765 29.9705ZM21 36.2537C21 35.2828 21.2381 34.5962 21.7143 34.194C22.1905 33.7779 22.7857 33.5698 23.5 33.5698C24.2003 33.5698 24.7885 33.7779 25.2647 34.194C25.7549 34.5962 26 35.2828 26 36.2537C26 37.2107 25.7549 37.9112 25.2647 38.355C24.7885 38.785 24.2003 39 23.5 39C22.7857 39 22.1905 38.785 21.7143 38.355C21.2381 37.9112 21 37.2107 21 36.2537Z" fill="#A7886B"/>
</svg>
