<svg width="41" height="37" viewBox="0 0 41 37" fill="none" xmlns="http://www.w3.org/2000/svg">
<path d="M20.1367 4.53033L20.667 5.06066L21.1973 4.53033C23.1075 2.6202 26.2078 0.75 29.667 0.75C35.2826 0.75 39.917 5.3673 39.917 12C39.917 18.7099 36.3263 24.0262 32.0275 28.0793C28.2172 31.6719 23.9249 34.2042 21.2375 35.7897C21.0382 35.9073 20.8478 36.0197 20.667 36.1269C20.4862 36.0197 20.2957 35.9073 20.0964 35.7897C17.4091 34.2042 13.1168 31.6719 9.3065 28.0793C5.00771 24.0262 1.41699 18.7099 1.41699 12C1.41699 5.37073 6.12339 0.75 11.667 0.75C15.1262 0.75 18.2265 2.6202 20.1367 4.53033Z" fill="#D7BB98" fill-opacity="0.32" stroke="#7F7D73" stroke-width="1.5"/>
</svg>
