<svg width="40" height="37" viewBox="0 0 40 37" fill="none" xmlns="http://www.w3.org/2000/svg">
<path d="M19.4697 4.53033L20 5.06066L20.5303 4.53033C22.4405 2.6202 25.5408 0.75 29 0.75C34.6156 0.75 39.25 5.3673 39.25 12C39.25 18.7099 35.6593 24.0262 31.3605 28.0793C27.5502 31.6719 23.2579 34.2042 20.5705 35.7897C20.3713 35.9073 20.1808 36.0197 20 36.1269C19.8192 36.0197 19.6287 35.9073 19.4295 35.7897C16.7421 34.2042 12.4498 31.6719 8.63951 28.0793C4.34072 24.0262 0.75 18.7099 0.75 12C0.75 5.37073 5.4564 0.75 11 0.75C14.4592 0.75 17.5595 2.6202 19.4697 4.53033Z" stroke="#7F7D73" stroke-width="1.5"/>
</svg>
