<svg width="60" height="34" viewBox="0 0 60 34" fill="none" xmlns="http://www.w3.org/2000/svg">
<path d="M58.9337 6.29457C58.3581 5.99936 57.7319 5.85059 57.0723 5.85059C55.506 5.85059 53.7907 6.60384 51.977 8.09044C50.8981 8.96084 49.5877 10.2928 48.085 12.0488C45.9705 14.5148 44.4707 16.2263 43.626 17.1365C42.6744 18.1534 41.7458 18.8363 40.8636 19.1702C40.2504 18.6899 39.5388 18.4474 38.7505 18.4474C37.728 18.4474 37.5154 18.8246 37.5154 19.1397C37.5154 19.6294 38.0578 19.8766 39.1295 19.8766C39.6328 19.8766 40.071 19.845 40.4355 19.7805C40.5468 19.9937 40.6033 20.2023 40.6033 20.4002C40.6033 20.7845 40.2966 21.4042 39.6892 22.2394C38.6493 23.6979 38.0867 24.4957 37.971 24.6784C37.3274 25.7093 37.002 26.6442 37.002 27.4537C37.002 28.6298 37.6716 29.4815 38.995 29.9852C38.3557 31.1977 38.0303 32.2251 38.0303 33.0427C38.0303 33.1728 38.0823 33.2876 38.1865 33.3836L38.3007 33.4902L38.3947 33.3696C38.4902 33.2489 38.5293 33.1365 38.5148 33.0381C38.564 32.2497 38.9226 31.2879 39.5778 30.175C39.9973 30.2792 40.4254 30.332 40.8564 30.332C42.5963 30.332 44.3651 29.7169 46.1122 28.5033C47.9968 27.1959 48.9513 25.9261 48.9513 24.7277C48.9513 24.1443 48.6346 23.4496 47.129 23.4496C45.6234 23.4496 44.1265 24.1806 42.4762 25.6238C41.1832 26.7543 40.1101 28.0359 39.2842 29.4381C38.7838 29.1476 38.5379 28.6743 38.5379 27.9949C38.5379 27.1467 39.0716 25.9612 40.126 24.4676C41.2194 22.9212 41.7487 21.7919 41.7487 21.0153C41.7487 20.5033 41.5824 20.0289 41.2541 19.606C42.9737 19.0554 45.0839 17.4317 47.5311 14.7737C49.3447 12.6885 51.1656 10.595 52.9909 8.49694C54.3649 7.05954 55.7215 6.33206 57.0275 6.33206C58.5505 6.33206 59.398 6.89202 59.6164 8.04475L59.6352 8.13495H59.7466C60.0011 8.13495 60.0011 7.82334 60.0011 7.69097C60.0011 7.11343 59.641 6.6425 58.9352 6.2934L58.9337 6.29457ZM39.1888 19.4385C38.7795 19.4385 38.0939 19.3986 38.0939 19.1386C38.0939 18.9558 38.5495 18.93 38.82 18.93C39.3724 18.93 39.8006 19.0741 40.1274 19.3682C39.8729 19.415 39.5576 19.4385 39.1873 19.4385H39.1888ZM42.9361 26.0163C44.5517 24.559 45.9777 23.8198 47.1753 23.8198C47.9375 23.8198 48.2933 24.122 48.2933 24.7722C48.2933 25.8897 47.4269 27.0378 45.7203 28.1835C44.1178 29.2577 42.5312 29.8036 41.001 29.8036C40.5064 29.8036 40.1187 29.7603 39.8454 29.6748C40.6307 28.4108 41.6706 27.1795 42.9361 26.0163Z" fill="#A7886B"/>
<path d="M32.8398 23.1283C34.0041 21.9932 35.1698 20.735 36.3312 19.3562C37.1614 18.385 38.1188 17.162 39.179 15.7211C40.093 14.4758 40.9999 13.2353 41.898 12.004C43.3212 10.0864 43.891 9.54982 44.1196 9.43853C44.4681 9.26632 44.8311 9.10583 45.2072 8.95588C45.8117 8.67824 46.1053 8.41818 46.1053 8.16397C46.1053 8.05854 46.0258 7.94608 45.8031 7.94608C45.2911 7.94608 44.4638 8.42286 43.2778 9.40338C42.815 9.55568 42.0803 10.0383 41.0346 10.8794C40.9536 10.9322 40.6224 11.1922 38.9215 12.6202C36.4715 14.6668 33.926 16.1768 31.3096 17.1316V17.7642C32.9078 17.1281 34.5667 16.2776 36.2762 15.2127C37.1281 14.6844 38.1304 13.9381 39.2571 12.9928C40.0887 12.2817 40.9391 11.5589 41.791 10.842C40.741 11.8529 39.6187 13.0431 38.4399 14.3915C37.0746 16.0257 35.7064 17.6552 34.3715 19.2355C33.44 20.3391 32.5101 21.3629 31.5844 22.3048C31.5396 22.3516 31.4948 22.3997 31.447 22.4454C30.9119 22.9866 30.3797 23.502 29.846 23.9882C29.7867 24.0432 29.7274 24.0971 29.6681 24.151C28.0511 25.6118 26.4573 26.8173 24.8953 27.7509C21.1291 30.0095 16.9276 31.1552 12.4035 31.1552C9.38797 31.1552 6.72677 30.5554 4.48644 29.3699C1.81078 27.9548 0.45414 25.9457 0.45414 23.3966C0.45414 21.8503 1.08907 20.3777 2.34012 19.02C3.69097 17.5556 5.60877 16.4076 8.04146 15.6075C10.2051 14.88 12.4874 14.511 14.8275 14.511H15.26C15.6664 16.089 16.9522 17.3143 19.084 18.1507C20.7906 18.8161 22.7157 19.1524 24.7998 19.1524H25.3017C25.4434 19.143 25.5548 19.136 25.6416 19.1324C25.6459 19.1758 25.6502 19.2226 25.6502 19.2707C25.6502 21.3231 24.1808 23.0041 21.2838 24.2705C18.9133 25.3084 16.4199 25.8344 13.873 25.8344C12.2965 25.8344 10.9558 25.6329 9.88116 25.2358C8.36833 24.6946 7.63216 23.8406 7.63216 22.6281V22.1783C7.63216 22.1408 7.61914 22.1056 7.58877 22.0717L7.5555 22.033L7.49765 22.0271L7.4774 22.0248H7.46728C7.20116 22.0248 7.1462 22.347 7.1462 22.8308C7.1462 24.1616 8.06316 25.1796 9.86959 25.8555C11.219 26.371 12.7391 26.631 14.385 26.631C17.2067 26.631 19.8028 26.0125 22.101 24.7895C24.8041 23.3661 26.1926 21.4438 26.2273 19.0704C26.9317 18.9954 27.6534 18.8712 28.3895 18.692V17.9621C27.6404 18.1179 26.8854 18.2281 26.1275 18.296C25.6661 16.6642 24.2155 15.3931 21.8146 14.5145C19.9952 13.8491 17.9371 13.4766 15.6939 13.4063C15.7329 11.3527 16.971 9.79934 19.3718 8.79188C21.2231 8.00816 23.4866 7.61104 26.0986 7.61104C26.897 7.61104 27.6635 7.6579 28.391 7.75044C28.459 7.75864 28.5226 7.76684 28.5877 7.77738C29.4887 7.90273 30.3305 8.10071 31.1086 8.37015C31.1693 8.39006 31.2301 8.41115 31.2894 8.43224C31.2937 8.43341 31.301 8.43575 31.3053 8.43927C33.2896 9.15035 34.2977 10.2539 34.2977 11.7206V11.7522L34.4091 11.8892L34.4365 11.9021C34.4727 11.9185 34.5089 11.9279 34.5465 11.9279C34.7793 11.9279 34.7793 11.655 34.7793 11.539C34.7793 9.92586 33.7004 8.66536 31.57 7.79379C31.4817 7.75747 31.3935 7.72233 31.3038 7.68718C31.2388 7.66141 31.1722 7.63681 31.1071 7.61455C30.3073 7.31817 29.4656 7.0991 28.5862 6.9597C28.5212 6.94916 28.4546 6.93861 28.3895 6.93041C27.6577 6.82264 26.9013 6.76758 26.1217 6.76758C22.6737 6.76758 19.9243 7.48217 17.9487 8.89028C16.1827 10.1414 15.2542 11.6561 15.1862 13.3922H14.9722C11.0223 13.3922 7.46583 14.4161 4.40111 16.4357C1.48391 18.3768 0 20.7104 0 23.3755C0 26.0406 1.40436 28.3168 4.17549 29.8186C6.47367 31.0568 9.25925 31.6847 12.457 31.6847C17.5061 31.6847 22.0822 30.5566 26.0552 28.3308C27.9354 27.2835 29.8344 25.8918 31.7377 24.1662C31.7941 24.1147 31.852 24.0608 31.9098 24.0081C32.1745 23.7656 32.4392 23.5161 32.7039 23.2607C32.7502 23.2185 32.7935 23.174 32.8398 23.1307V23.1283ZM21.4285 15.317C23.6847 15.9847 25.0587 16.9992 25.5186 18.3323C23.3593 18.3206 21.4704 18.0875 19.9012 17.64C17.6782 16.9969 16.3172 15.946 15.8544 14.5145C17.9458 14.5825 19.8216 14.8507 21.4299 15.3158L21.4285 15.317Z" fill="#A7886B"/>
<path d="M37.1992 23.8339C37.1992 23.6792 37.1515 23.6019 37.056 23.6019C35.2814 23.6019 33.9898 23.5246 33.1814 23.3711C33.0859 23.3523 32.9933 23.3324 32.9051 23.3125C32.6592 23.5503 32.4134 23.7823 32.1689 24.0085L34.0144 24.0249C34.7419 24.0518 35.7558 24.0635 37.056 24.0635C37.1515 24.0635 37.1992 23.9874 37.1992 23.8327V23.8339Z" fill="#A7886B"/>
<path d="M24.3645 0.461559C25.5997 0.461559 26.5108 0.531847 27.0966 0.673595C27.6838 0.814171 28.0786 1.06487 28.284 1.42451C28.4908 1.78415 28.5935 2.34763 28.5935 3.11845V6.80272C29.4714 6.93979 30.3117 7.15417 31.1144 7.44469V3.15711C31.1144 2.4636 31.2243 1.95167 31.4456 1.6178C31.6669 1.28393 32.0632 1.05315 32.6359 0.92429C33.2058 0.796599 34.0765 0.730997 35.2509 0.730997H39.623C41.0187 0.730997 42.144 1.11641 43.0002 1.88607C43.8549 2.65689 44.283 3.69599 44.283 5.00569C44.283 5.08184 44.3785 5.12049 44.568 5.12049C44.7574 5.12049 44.8543 5.08184 44.8543 5.00569L44.7589 0.345584C44.7589 0.113633 44.5998 0 44.2845 0H24.366C24.3023 0 24.2705 0.0761455 24.2705 0.23078C24.2705 0.385414 24.3023 0.462731 24.366 0.462731L24.3645 0.461559Z" fill="#A7886B"/>
<path d="M31.1149 17.8419V8.55096C30.3411 8.27567 29.4979 8.07417 28.594 7.94531V20.9475C28.594 21.7183 28.4927 22.2888 28.2845 22.6601C28.0791 23.0327 27.6828 23.2834 27.0971 23.4122C26.5099 23.5399 25.6001 23.6044 24.365 23.6044C24.3014 23.6044 24.2695 23.6817 24.2695 23.8363C24.2695 23.9909 24.3014 24.0671 24.365 24.0671C25.3788 24.0671 26.1714 24.0554 26.7413 24.0284L29.5818 23.9956C30.1734 23.4591 30.7663 22.8874 31.3637 22.2818C31.1973 21.9174 31.1149 21.4219 31.1149 20.7952V17.8442V17.8419Z" fill="#A7886B"/>
</svg>
