<svg width="48" height="56" viewBox="0 0 48 56" fill="none" xmlns="http://www.w3.org/2000/svg">
<path d="M19.3291 2.32883L16.0834 9.43499L8.30642 8.69279L15.4126 11.9385L14.6704 19.7155L17.9161 12.6093L25.6931 13.3515L18.5869 10.1058L19.3291 2.32883Z" fill="#A7886B"/>
<path d="M26.4468 10.0215C27.5314 10.134 28.5934 10.3204 29.6277 10.5756M33.0532 11.7104C34.0719 12.1388 35.0527 12.6372 35.9894 13.1996M39.1702 15.4987C43.9702 19.634 47 25.6991 47 32.4584C47 44.9196 36.7025 55.0215 24 55.0215C11.2975 55.0215 1 44.9196 1 32.4584C1 21.9882 8.26974 13.1836 18.1277 10.6374" stroke="#A7886B" stroke-width="1.5" stroke-linecap="round"/>
</svg>
